<svg width="122" height="46" viewBox="0 0 122 46" fill="none" xmlns="http://www.w3.org/2000/svg">
<g filter="url(#filter0_d_323_7003)">
<mask id="path-1-inside-1_323_7003" fill="white">
<rect width="118" height="42" rx="1"/>
</mask>
<rect width="118" height="42" rx="1" fill="#58B8FF" shape-rendering="crispEdges"/>
<path d="M16.0764 27V17.2744H18.6471V18.9903H18.7611C18.9637 18.4205 19.3014 17.9709 19.7741 17.6417C20.2469 17.3124 20.8125 17.1478 21.471 17.1478C22.138 17.1478 22.7057 17.3145 23.1743 17.648C23.6428 17.9773 23.9552 18.4247 24.1114 18.9903H24.2127C24.4111 18.4332 24.7699 17.9878 25.2891 17.6543C25.8125 17.3167 26.4309 17.1478 27.1443 17.1478C28.0518 17.1478 28.7884 17.437 29.3541 18.0153C29.9239 18.5893 30.2088 19.404 30.2088 20.4593V27H27.5179V20.9912C27.5179 20.4509 27.3743 20.0456 27.0873 19.7755C26.8003 19.5053 26.4415 19.3702 26.0109 19.3702C25.5212 19.3702 25.1392 19.5264 24.8649 19.8388C24.5905 20.1469 24.4533 20.5543 24.4533 21.0608V27H21.8383V20.9342C21.8383 20.4572 21.7011 20.0773 21.4267 19.7945C21.1566 19.5117 20.7999 19.3702 20.3567 19.3702C20.057 19.3702 19.7868 19.4462 19.5462 19.5982C19.3098 19.7459 19.122 19.9549 18.9827 20.225C18.8434 20.491 18.7737 20.8033 18.7737 21.1621V27H16.0764ZM33.6565 30.6471C33.3146 30.6471 32.9938 30.6196 32.6941 30.5648C32.3986 30.5141 32.1537 30.4487 31.9596 30.3685L32.5674 28.355C32.884 28.4521 33.1689 28.5048 33.4222 28.5133C33.6797 28.5217 33.9013 28.4626 34.087 28.336C34.277 28.2094 34.4311 27.9941 34.5493 27.6902L34.7076 27.2786L31.2188 17.2744H34.0554L36.0689 24.4166H36.1702L38.2027 17.2744H41.0583L37.2782 28.0511C37.0967 28.5745 36.8498 29.0304 36.5374 29.4187C36.2293 29.8113 35.8388 30.1131 35.3661 30.3242C34.8933 30.5394 34.3234 30.6471 33.6565 30.6471ZM49.5238 17.762C49.4732 17.2512 49.2558 16.8544 48.8717 16.5716C48.4875 16.2888 47.9662 16.1474 47.3077 16.1474C46.8603 16.1474 46.4825 16.2107 46.1743 16.3373C45.8662 16.4598 45.6298 16.6307 45.4652 16.8502C45.3048 17.0697 45.2246 17.3188 45.2246 17.5974C45.2161 17.8295 45.2647 18.0321 45.3702 18.2052C45.48 18.3783 45.6298 18.5281 45.8198 18.6548C46.0097 18.7772 46.2292 18.8848 46.4783 18.9777C46.7273 19.0663 46.9932 19.1423 47.2761 19.2056L48.4411 19.4842C49.0067 19.6109 49.5259 19.7797 49.9987 19.9908C50.4715 20.2018 50.8809 20.4614 51.2271 20.7696C51.5732 21.0777 51.8412 21.4407 52.0312 21.8586C52.2254 22.2765 52.3246 22.7556 52.3288 23.2959C52.3246 24.0895 52.122 24.7776 51.7209 25.3601C51.3242 25.9384 50.7501 26.3879 49.9987 26.7087C49.2516 27.0253 48.3503 27.1836 47.2951 27.1836C46.2482 27.1836 45.3364 27.0232 44.5597 26.7024C43.7873 26.3816 43.1836 25.9067 42.7489 25.2778C42.3183 24.6446 42.0925 23.8616 42.0714 22.9287H44.7244C44.7539 23.3635 44.8784 23.7265 45.0979 24.0177C45.3217 24.3048 45.6193 24.5222 45.9907 24.6699C46.3664 24.8134 46.7906 24.8852 47.2634 24.8852C47.7277 24.8852 48.1308 24.8177 48.4728 24.6826C48.8189 24.5475 49.0869 24.3597 49.2769 24.1191C49.4668 23.8785 49.5618 23.602 49.5618 23.2896C49.5618 22.9983 49.4753 22.7535 49.3022 22.5551C49.1334 22.3567 48.8843 22.1879 48.5551 22.0486C48.23 21.9093 47.8311 21.7826 47.3584 21.6687L45.9464 21.3141C44.8531 21.0482 43.9899 20.6324 43.3567 20.0667C42.7235 19.5011 42.4091 18.7392 42.4133 17.781C42.4091 16.9958 42.618 16.3099 43.0401 15.7232C43.4665 15.1364 44.0511 14.6784 44.794 14.3492C45.5369 14.0199 46.3812 13.8553 47.3267 13.8553C48.2891 13.8553 49.1292 14.0199 49.8467 14.3492C50.5686 14.6784 51.13 15.1364 51.531 15.7232C51.932 16.3099 52.1388 16.9895 52.1515 17.762H49.5238ZM56.8196 21.3774V27H54.1223V14.0326H56.7436V18.9903H56.8576C57.0771 18.4163 57.4316 17.9667 57.9213 17.6417C58.411 17.3124 59.0251 17.1478 59.7638 17.1478C60.4392 17.1478 61.0281 17.2955 61.5304 17.591C62.0369 17.8823 62.4295 18.3023 62.7081 18.851C62.9909 19.3956 63.1302 20.0477 63.126 20.8076V27H60.4287V21.2888C60.4329 20.6894 60.2809 20.2229 59.9728 19.8895C59.6689 19.556 59.2425 19.3892 58.6938 19.3892C58.3265 19.3892 58.0015 19.4673 57.7187 19.6235C57.4401 19.7797 57.2206 20.0076 57.0602 20.3073C56.904 20.6028 56.8238 20.9595 56.8196 21.3774ZM69.6809 27.19C68.6805 27.19 67.8194 26.9873 67.0976 26.5821C66.38 26.1727 65.827 25.5944 65.4387 24.8472C65.0503 24.0958 64.8561 23.2073 64.8561 22.1815C64.8561 21.1811 65.0503 20.3031 65.4387 19.5475C65.827 18.792 66.3737 18.2031 67.0786 17.781C67.7877 17.3589 68.6193 17.1478 69.5733 17.1478C70.2149 17.1478 70.8122 17.2512 71.3652 17.4581C71.9224 17.6607 72.4078 17.9667 72.8215 18.3762C73.2394 18.7856 73.5644 19.3006 73.7966 19.9211C74.0287 20.5374 74.1448 21.2592 74.1448 22.0866V22.8274H65.9325V21.1558H71.6058C71.6058 20.7675 71.5214 20.4234 71.3525 20.1237C71.1837 19.824 70.9494 19.5897 70.6497 19.4209C70.3542 19.2478 70.0102 19.1613 69.6176 19.1613C69.2082 19.1613 68.8451 19.2563 68.5286 19.4462C68.2162 19.632 67.9714 19.8831 67.7941 20.1997C67.6168 20.5121 67.526 20.8603 67.5218 21.2444V22.8337C67.5218 23.3149 67.6105 23.7307 67.7877 24.0811C67.9693 24.4314 68.2246 24.7016 68.5539 24.8915C68.8831 25.0815 69.2736 25.1765 69.7253 25.1765C70.025 25.1765 70.2993 25.1342 70.5484 25.0498C70.7974 24.9654 71.0106 24.8388 71.1879 24.6699C71.3652 24.5011 71.5003 24.2942 71.5931 24.0494L74.0878 24.214C73.9612 24.8134 73.7016 25.3369 73.309 25.7843C72.9207 26.2275 72.4184 26.5737 71.8021 26.8227C71.19 27.0675 70.483 27.19 69.6809 27.19ZM80.3373 27.19C79.3368 27.19 78.4757 26.9873 77.7539 26.5821C77.0363 26.1727 76.4833 25.5944 76.095 24.8472C75.7066 24.0958 75.5125 23.2073 75.5125 22.1815C75.5125 21.1811 75.7066 20.3031 76.095 19.5475C76.4833 18.792 77.03 18.2031 77.7349 17.781C78.4441 17.3589 79.2756 17.1478 80.2296 17.1478C80.8712 17.1478 81.4685 17.2512 82.0215 17.4581C82.5787 17.6607 83.0641 17.9667 83.4778 18.3762C83.8957 18.7856 84.2207 19.3006 84.4529 19.9211C84.6851 20.5374 84.8011 21.2592 84.8011 22.0866V22.8274H76.5889V21.1558H82.2621C82.2621 20.7675 82.1777 20.4234 82.0088 20.1237C81.84 19.824 81.6057 19.5897 81.306 19.4209C81.0105 19.2478 80.6665 19.1613 80.2739 19.1613C79.8645 19.1613 79.5015 19.2563 79.1849 19.4462C78.8725 19.632 78.6277 19.8831 78.4504 20.1997C78.2731 20.5121 78.1824 20.8603 78.1781 21.2444V22.8337C78.1781 23.3149 78.2668 23.7307 78.4441 24.0811C78.6256 24.4314 78.881 24.7016 79.2102 24.8915C79.5395 25.0815 79.9299 25.1765 80.3816 25.1765C80.6813 25.1765 80.9557 25.1342 81.2047 25.0498C81.4538 24.9654 81.6669 24.8388 81.8442 24.6699C82.0215 24.5011 82.1566 24.2942 82.2494 24.0494L84.7442 24.214C84.6175 24.8134 84.3579 25.3369 83.9653 25.7843C83.577 26.2275 83.0747 26.5737 82.4584 26.8227C81.8463 27.0675 81.1393 27.19 80.3373 27.19ZM91.7344 17.2744V19.3006H85.8775V17.2744H91.7344ZM87.2072 14.9444H89.9045V24.0114C89.9045 24.2605 89.9425 24.4546 90.0185 24.5939C90.0945 24.729 90.2 24.824 90.3351 24.8789C90.4744 24.9337 90.6348 24.9612 90.8163 24.9612C90.9429 24.9612 91.0696 24.9506 91.1962 24.9295C91.3228 24.9042 91.4199 24.8852 91.4875 24.8725L91.9117 26.8797C91.7766 26.9219 91.5867 26.9705 91.3418 27.0253C91.097 27.0844 90.7994 27.1203 90.449 27.133C89.799 27.1583 89.2291 27.0718 88.7395 26.8734C88.254 26.675 87.8763 26.3668 87.6061 25.9489C87.3359 25.531 87.203 25.0034 87.2072 24.366V14.9444ZM101.462 20.0477L98.9922 20.1997C98.9499 19.9886 98.8592 19.7987 98.7199 19.6299C98.5806 19.4568 98.397 19.3196 98.169 19.2183C97.9453 19.1128 97.6773 19.06 97.3649 19.06C96.947 19.06 96.5945 19.1486 96.3075 19.3259C96.0205 19.499 95.8769 19.7312 95.8769 20.0224C95.8769 20.2546 95.9698 20.4509 96.1555 20.6113C96.3413 20.7717 96.66 20.9004 97.1116 20.9975L98.8719 21.3521C99.8174 21.5463 100.522 21.8586 100.987 22.2892C101.451 22.7197 101.683 23.2854 101.683 23.9861C101.683 24.6235 101.495 25.1828 101.12 25.664C100.748 26.1452 100.237 26.5209 99.5873 26.7911C98.9415 27.057 98.1965 27.19 97.3522 27.19C96.0648 27.19 95.039 26.9219 94.275 26.3858C93.5152 25.8455 93.0699 25.111 92.939 24.1824L95.592 24.0431C95.6722 24.4356 95.8664 24.7353 96.1745 24.9422C96.4827 25.1448 96.8774 25.2461 97.3586 25.2461C97.8313 25.2461 98.2112 25.1554 98.4983 24.9738C98.7895 24.7881 98.9373 24.5496 98.9415 24.2584C98.9373 24.0135 98.8339 23.813 98.6312 23.6568C98.4286 23.4964 98.1163 23.374 97.6942 23.2896L96.0099 22.954C95.0601 22.7641 94.3531 22.4348 93.8888 21.9663C93.4287 21.4977 93.1986 20.9004 93.1986 20.1744C93.1986 19.5496 93.3675 19.0115 93.7052 18.5598C94.0471 18.1081 94.5262 17.7599 95.1425 17.515C95.763 17.2702 96.489 17.1478 97.3206 17.1478C98.5489 17.1478 99.5156 17.4074 100.221 17.9266C100.93 18.4458 101.343 19.1529 101.462 20.0477Z" fill="black"/>
<rect width="118" height="42" rx="1" stroke="black" stroke-width="2.26415" shape-rendering="crispEdges" mask="url(#path-1-inside-1_323_7003)"/>
</g>
<defs>
<filter id="filter0_d_323_7003" x="0" y="0" width="121.26" height="45.26" filterUnits="userSpaceOnUse" color-interpolation-filters="sRGB">
<feFlood flood-opacity="0" result="BackgroundImageFix"/>
<feColorMatrix in="SourceAlpha" type="matrix" values="0 0 0 0 0 0 0 0 0 0 0 0 0 0 0 0 0 0 127 0" result="hardAlpha"/>
<feOffset dx="3.26" dy="3.26"/>
<feComposite in2="hardAlpha" operator="out"/>
<feColorMatrix type="matrix" values="0 0 0 0 0 0 0 0 0 0 0 0 0 0 0 0 0 0 1 0"/>
<feBlend mode="normal" in2="BackgroundImageFix" result="effect1_dropShadow_323_7003"/>
<feBlend mode="normal" in="SourceGraphic" in2="effect1_dropShadow_323_7003" result="shape"/>
</filter>
</defs>
</svg>
